<svg version="1.1" xmlns="http://www.w3.org/2000/svg" viewBox="0 0 80 80">
    <style>
        text {
            font: 1px Helvetica;
            font-weight: 600;
            white-space: pre;
            dominant-baseline: central;
            stroke: white;
            stroke-width: 0.1px;
            paint-order: stroke;
            cursor: pointer;
        }

        text. line {
            stroke-width: 0.75;
            fill: none;
            stroke-linecap: round;
            stroke-linejoin:
                round;
        }

        .c0 {
            stroke: #bd1038
        }

        .w1 {
            stroke-width: 1;
        }

        circle {
            fill: #fff;
            stroke: #bd1038;
            cursor: pointer
        }
    </style>
    <defs>
        <g id="ct">
            <circle r="0.6" stroke-width="0.2" />
        </g>
    </defs>
    <line class="c0 w1" x1="8" y1="2" x2="24" y2="18" />
    <line class="c0 w1" x1="24" y1="31" x2="38" y2="45" />
    <line class="c0 w1" x1="24" y1="18" x2="24" y2="31" />
    <line class="c0 w1" x1="24" y1="18" x2="38" y2="4" />
    <line class="c0 w1" x1="8" y1="47" x2="24" y2="31" />

    <g id="schSt"><use x="8" y="2" href="#ct" /><text x="7.25" y="2" text-anchor="end">BATAJNICA</text></g>
    <g id="schSt"><use x="8" y="47" href="#ct" /><text x="7.25" y="47" text-anchor="end">LAZAREVAC</text></g>
    <g id="schSt"><use x="10" y="4" href="#ct" /><text x="9.25" y="4" text-anchor="end">Kamendin</text></g>
    <g id="schSt"><use x="10" y="45" href="#ct" /><text x="9.25" y="45" text-anchor="end">Vreoci</text></g>
    <g id="schSt"><use x="12" y="6" href="#ct" /><text x="11.25" y="6" text-anchor="end">Zemun polje</text></g>
    <g id="schSt"><use x="12" y="43" href="#ct" /><text x="11.25" y="43" text-anchor="end">Stepojevac</text></g>
    <g id="schSt"><use x="14" y="8" href="#ct" /><text x="13.25" y="8" text-anchor="end">Altina</text></g>
    <g id="schSt"><use x="14" y="41" href="#ct" /><text x="13.25" y="41" text-anchor="end">Leskovac</text></g>
    <g id="schSt"><use x="16" y="10" href="#ct" /><text x="15.25" y="10" text-anchor="end">ZEMUN</text></g>
    <g id="schSt"><use x="16" y="39" href="#ct" /><text x="15.25" y="39" text-anchor="end">Veliki Borak</text></g>
    <g id="schSt"><use x="18" y="12" href="#ct" /><text x="17.25" y="12" text-anchor="end">Tošin bunar</text></g>
    <g id="schSt"><use x="18" y="37" href="#ct" /><text x="17.25" y="37" text-anchor="end">Barajevo centar</text></g>
    <g id="schSt"><use x="20" y="14" href="#ct" /><text x="19.25" y="14" text-anchor="end">Novi Beograd</text></g>
    <g id="schSt"><use x="20" y="35" href="#ct" /><text x="19.25" y="35" text-anchor="end">Barajevo</text></g>
    <g id="schSt"><use x="22" y="16" href="#ct" /><text x="21.25" y="16" text-anchor="end">BEOGRAD CENTAR</text></g>
    <g id="schSt"><use x="22" y="33" href="#ct" /><text x="21.25" y="33" text-anchor="end">Bela reka</text></g>
    <g id="schSt"><use x="24" y="20" href="#ct" /><text x="24.75" y="20">Rakovica</text></g>
    <g id="schSt"><use x="24" y="23" href="#ct" /><text x="24.75" y="23">Kneževac</text></g>
    <g id="schSt"><use x="24" y="26" href="#ct" /><text x="24.75" y="26">Kijevo</text></g>
    <g id="schSt"><use x="24" y="29" href="#ct" /><text x="24.75" y="29">RESNIK</text></g>
    <g id="schSt"><use x="26" y="16" href="#ct" /><text x="26.75" y="16">Karađorđev park</text></g>
    <g id="schSt"><use x="26" y="33" href="#ct" /><text x="26.75" y="33">Ripanj kolonija</text></g>
    <g id="schSt"><use x="28" y="14" href="#ct" /><text x="28.75" y="14">Vukov spomenik</text></g>
    <g id="schSt"><use x="28" y="35" href="#ct" /><text x="28.75" y="35">Ripanj</text></g>
    <g id="schSt"><use x="30" y="12" href="#ct" /><text x="30.75" y="12">Pančevački most</text></g>
    <g id="schSt"><use x="30" y="37" href="#ct" /><text x="30.75" y="37">Klenje</text></g>
    <g id="schSt"><use x="32" y="10" href="#ct" /><text x="32.75" y="10">Krnjača most</text></g>
    <g id="schSt"><use x="32" y="39" href="#ct" /><text x="32.75" y="39">Ralja</text></g>
    <g id="schSt"><use x="34" y="8" href="#ct" /><text x="34.75" y="8">Krnjača</text></g>
    <g id="schSt"><use x="34" y="41" href="#ct" /><text x="34.75" y="41">Sopot</text></g>
    <g id="schSt"><use x="36" y="6" href="#ct" /><text x="36.75" y="6">Sebeš</text></g>
    <g id="schSt"><use x="36" y="43" href="#ct" /><text x="36.75" y="43">Vlaško polje</text></g>
    <g id="schSt"><use x="38" y="4" href="#ct" /><text x="38.75" y="4">Ovča</text></g>
    <g id="schSt"><use x="38" y="45" href="#ct" /><text x="38.75" y="45">MLADENOVAC</text></g>
</svg>