<svg version="1.1" xmlns="http://www.w3.org/2000/svg" viewBox="0 0 80 80">
    <style>
    text {
        font: 1px Helvetica;
        font-weight: 600;
        white-space: pre;
        dominant-baseline: central;
        stroke: white;
        stroke-width: 0.1px;
        paint-order: stroke;
        cursor: pointer;
    }
    text.
    line { stroke-width: 0.75; fill: none; stroke-linecap: round; stroke-linejoin:
        round; }
    .c0 { stroke: #bd1038 }
    .w1 { stroke-width: 1; }
    circle { fill: #fff; stroke: #bd1038; cursor: pointer }
    </style>
    <defs>
        <g id="ct">
            <circle r="0.6" stroke-width="0.2" />
        </g>
    </defs>
    <line class="c0 w1" x1="23" y1="11" x2="39" y2="27" />
    <line class="c0 w1" x1="25" y1="54" x2="39" y2="40" />
    <line class="c0 w1" x1="39" y1="27" x2="39" y2="40" />
    <line class="c0 w1" x1="39" y1="27" x2="53" y2="13" />
    <line class="c0 w1" x1="39" y1="40" x2="53" y2="54" />

<g id="schSt1">
    <use x="23" y="11" href="#ct" />
    <text x="22.25" y="11" text-anchor="end">BATAJNICA</text>
</g>
    <use x="25" y="13" href="#ct" />
    <text x="24.25" y="13" text-anchor="end">Kamendin</text>
    <use x="25" y="54" href="#ct" />
    <text x="24.25" y="54" text-anchor="end">LAZAREVAC</text>
    <use x="27" y="15" href="#ct" />
    <text x="26.25" y="15" text-anchor="end">Zemun polje</text>
    <use x="27" y="52" href="#ct" />
    <text x="26.25" y="52" text-anchor="end">Vreoci</text>
    <use x="29" y="17" href="#ct" />
    <text x="28.25" y="17" text-anchor="end">Altina</text>
    <use x="29" y="50" href="#ct" />
    <text x="28.25" y="50" text-anchor="end">Stepojevac</text>
    <use x="31" y="19" href="#ct" />
    <text x="30.25" y="19" text-anchor="end">ZEMUN</text>
    <use x="31" y="48" href="#ct" />
    <text x="30.25" y="48" text-anchor="end">Leskovac</text>
    <use x="33" y="21" href="#ct" />
    <text x="32.25" y="21" text-anchor="end">Tošin bunar</text>
    <use x="33" y="46" href="#ct" />
    <text x="32.25" y="46" text-anchor="end">Veliki Borak</text>
    <use x="35" y="23" href="#ct" />
    <text x="34.25" y="23" text-anchor="end">Novi Beograd</text>
    <use x="35" y="44" href="#ct" />
    <text x="34.25" y="44" text-anchor="end">Barajevo centar</text>
    <use x="37" y="25" href="#ct" />
    <text x="36.25" y="25" text-anchor="end">BEOGRAD CENTAR</text>
    <use x="37" y="42" href="#ct" />
    <text x="36.25" y="42" text-anchor="end">Bela reka</text>
    <use x="39" y="29" href="#ct" />
    <text x="39.75" y="29">Rakovica</text>
    <use x="39" y="32" href="#ct" />
    <text x="39.75" y="32">Kneževac</text>
    <use x="39" y="35" href="#ct" />
    <text x="39.75" y="35">Kijevo</text>
    <use x="39" y="38" href="#ct" />
    <text x="39.75" y="38">RESNIK</text>
    <use x="41" y="25" href="#ct" />
    <text x="41.75" y="25">Karađorđev park</text>
    <use x="41" y="42" href="#ct" />
    <text x="41.75" y="42">Ripanj kolonija</text>
    <use x="43" y="23" href="#ct" />
    <text x="43.75" y="23">Vukov spomenik</text>
    <use x="43" y="44" href="#ct" />
    <text x="43.75" y="44">Ripanj</text>
    <use x="45" y="21" href="#ct" />
    <text x="45.75" y="21">Pančevački most</text>
    <use x="45" y="46" href="#ct" />
    <text x="45.75" y="46">Klenje</text>
    <use x="47" y="19" href="#ct" />
    <text x="47.75" y="19">Krnjača most</text>
    <use x="47" y="48" href="#ct" />
    <text x="47.75" y="48">Ralja</text>
    <use x="49" y="17" href="#ct" />
    <text x="49.75" y="17">Krnjača</text>
    <use x="49" y="50" href="#ct" />
    <text x="49.75" y="50">Sopot</text>
    <use x="51" y="15" href="#ct" />
    <text x="51.75" y="15">Sebeš</text>
    <use x="51" y="52" href="#ct" />
    <text x="51.75" y="52">Vlaško polje</text>
    <use x="53" y="13" href="#ct" />
    <text x="53.75" y="13">Ovča</text>
    <use x="53" y="54" href="#ct" />
    <text x="53.75" y="54">MLADENOVAC</text>
</svg>