<svg version="1.1" xmlns="http://www.w3.org/2000/svg" viewBox="0 0 80 80">
    <style>
        text {
            font: 1px Helvetica;
            font-weight: 600;
            white-space: pre;
            dominant-baseline: central;
            stroke: white;
            stroke-width: 0.1px;
            paint-order: stroke;
            cursor: pointer;
        }

        text. line {
            stroke-width: 0.75;
            fill: none;
            stroke-linecap: round;
            stroke-linejoin:
                round;
        }

        .c0 {
            stroke: #bd1038
        }

        .w1 {
            stroke-width: 1;
        }

        circle {
            fill: #fff;
            stroke: #bd1038;
            cursor: pointer
        }
    </style>
    <defs>
        <g id="ct">
            <circle r="0.6" stroke-width="0.2" />
        </g>
    </defs>
    <line class="c0 w1" x1="23" y1="11" x2="39" y2="27" />
    <line class="c0 w1" x1="25" y1="54" x2="39" y2="40" />
    <line class="c0 w1" x1="39" y1="27" x2="39" y2="40" />
    <line class="c0 w1" x1="39" y1="27" x2="53" y2="13" />
    <line class="c0 w1" x1="39" y1="40" x2="53" y2="54" />

    <g id="schSt5"><use x="23" y="11" href="#ct" /><text x="22.25" y="11" text-anchor="end">BATAJNICA</text></g>
    <g id="schSt6"><use x="25" y="13" href="#ct" /><text x="24.25" y="13" text-anchor="end">Kamendin</text></g>
    <g id="schSt20"><use x="25" y="54" href="#ct" /><text x="24.25" y="54" text-anchor="end">LAZAREVAC</text></g>
    <g id="schSt7"><use x="27" y="15" href="#ct" /><text x="26.25" y="15" text-anchor="end">Zemun polje</text></g>
    <g id="schSt21"><use x="27" y="52" href="#ct" /><text x="26.25" y="52" text-anchor="end">Vreoci</text></g>
    <g id="schSt8"><use x="29" y="17" href="#ct" /><text x="28.25" y="17" text-anchor="end">Altina</text></g>
    <g id="schSt22"><use x="29" y="50" href="#ct" /><text x="28.25" y="50" text-anchor="end">Stepojevac</text></g>
    <g id="schSt1"><use x="31" y="19" href="#ct" /><text x="30.25" y="19" text-anchor="end">ZEMUN</text></g>
    <g id="schSt23"><use x="31" y="48" href="#ct" /><text x="30.25" y="48" text-anchor="end">Leskovac</text></g>
    <g id="schSt2"><use x="33" y="21" href="#ct" /><text x="32.25" y="21" text-anchor="end">Tošin bunar</text></g>
    <g id="schSt24"><use x="33" y="46" href="#ct" /><text x="32.25" y="46" text-anchor="end">Veliki Borak</text></g>
    <g id="schSt3"><use x="35" y="23" href="#ct" /><text x="34.25" y="23" text-anchor="end">Novi Beograd</text></g>
    <g id="schSt25"><use x="35" y="44" href="#ct" /><text x="34.25" y="44" text-anchor="end">Barajevo centar</text></g>
    <g id="schSt4"><use x="37" y="25" href="#ct" /><text x="36.25" y="25" text-anchor="end">BEOGRAD CENTAR</text></g>
    <g id="schSt27"><use x="37" y="42" href="#ct" /><text x="36.25" y="42" text-anchor="end">Bela reka</text></g>
    <g id="schSt19"><use x="39" y="29" href="#ct" /><text x="39.75" y="29">Rakovica</text></g>
    <g id="schSt18"><use x="39" y="32" href="#ct" /><text x="39.75" y="32">Kneževac</text></g>
    <g id="schSt17"><use x="39" y="35" href="#ct" /><text x="39.75" y="35">Kijevo</text></g>
    <g id="schSt16"><use x="39" y="38" href="#ct" /><text x="39.75" y="38">RESNIK</text></g>
    <g id="schSt9"><use x="41" y="25" href="#ct" /><text x="41.75" y="25">Karađorđev park</text></g>
    <g id="schSt"><use x="41" y="42" href="#ct" /><text x="41.75" y="42">Ripanj kolonija</text></g>
    <g id="schSt10"><use x="43" y="23" href="#ct" /><text x="43.75" y="23">Vukov spomenik</text></g>
    <g id="schSt"><use x="43" y="44" href="#ct" /><text x="43.75" y="44">Ripanj</text></g>
    <g id="schSt11"><use x="45" y="21" href="#ct" /><text x="45.75" y="21">Pančevački most</text></g>
    <g id="schSt"><use x="45" y="46" href="#ct" /><text x="45.75" y="46">Klenje</text></g>
    <g id="schSt12"><use x="47" y="19" href="#ct" /><text x="47.75" y="19">Krnjača most</text></g>
    <g id="schSt"><use x="47" y="48" href="#ct" /><text x="47.75" y="48">Ralja</text></g>
    <g id="schSt13"><use x="49" y="17" href="#ct" /><text x="49.75" y="17">Krnjača</text></g>
    <g id="schSt"><use x="49" y="50" href="#ct" /><text x="49.75" y="50">Sopot</text></g>
    <g id="schSt14"><use x="51" y="15" href="#ct" /><text x="51.75" y="15">Sebeš</text></g>
    <g id="schSt"><use x="51" y="52" href="#ct" /><text x="51.75" y="52">Vlaško polje</text></g>
    <g id="schSt15"><use x="53" y="13" href="#ct" /><text x="53.75" y="13">Ovča</text></g>
    <g id="schSt"><use x="53" y="54" href="#ct" /><text x="53.75" y="54">MLADENOVAC</text></g>
</svg>