<svg version="1.1" xmlns="http://www.w3.org/2000/svg" viewBox="1 1 48 47">
    <style>
        text {
            font: 1px Helvetica;
            font-weight: 600;
            white-space: pre;
            dominant-baseline: central;
            stroke: white;
            stroke-width: 0.1px;
            paint-order: stroke;
        }

        .schema-line {
            stroke: #bd1038;
            stroke-width: 1;
        }

        .schema-station circle {
            fill: #fff;
            stroke: #bd1038;
            stroke-width: 0.2;
            r: 0.6;
        }

        .schema-station {
            cursor: pointer;
        }

        .schema-station.selected circle {
            fill: #00ff00;
        }
    </style>

    <line class="schema-line" x1="8" y1="2" x2="24" y2="18" />
    <line class="schema-line" x1="24" y1="18" x2="24" y2="31" />
    <line class="schema-line" x1="24" y1="31" x2="40" y2="47" />
    <line class="schema-line" x1="24" y1="18" x2="38" y2="4" />
    <line class="schema-line" x1="8" y1="47" x2="24" y2="31" />

    <line x1="20" y1="20" x2="20" y2="22" style="stroke: green; stroke-width: .2"></line>
    <line x1="20" y1="20" x2="19" y2="21" style="stroke: green; stroke-width: .2"></line>
    <line x1="20" y1="20" x2="21" y2="21" style="stroke: green; stroke-width: .2"></line>

    <g id="schSt5" class="schema-station"><circle cx="8" cy="2" /><text x="7.25" y="2" text-anchor="end">BATAJNICA</text></g>
    <g id="schSt20" class="schema-station"><circle cx="8" cy="47" /><text x="7.25" y="47" text-anchor="end">LAZAREVAC</text></g>
    <g id="schSt6" class="schema-station"><circle cx="10" cy="4" /><text x="9.25" y="4" text-anchor="end">Kamendin</text></g>
    <g id="schSt21" class="schema-station"><circle cx="10" cy="45" /><text x="9.25" y="45" text-anchor="end">Vreoci</text></g>
    <g id="schSt7" class="schema-station"><circle cx="12" cy="6" /><text x="11.25" y="6" text-anchor="end">Zemun polje</text></g>
    <g id="schSt22" class="schema-station"><circle cx="12" cy="43" /><text x="11.25" y="43" text-anchor="end">Stepojevac</text></g>
    <g id="schSt8" class="schema-station"><circle cx="14" cy="8" /><text x="13.25" y="8" text-anchor="end">Altina</text></g>
    <g id="schSt23" class="schema-station"><circle cx="14" cy="41" /><text x="13.25" y="41" text-anchor="end">Leskovac</text></g>
    <g id="schSt1" class="schema-station"><circle cx="16" cy="10" /><text x="15.25" y="10" text-anchor="end">ZEMUN</text></g>
    <g id="schSt24" class="schema-station"><circle cx="16" cy="39" /><text x="15.25" y="39" text-anchor="end">Veliki Borak</text></g>
    <g id="schSt2" class="schema-station"><circle cx="18" cy="12" /><text x="17.25" y="12" text-anchor="end">Tošin bunar</text></g>
    <g id="schSt25" class="schema-station"><circle cx="18" cy="37" /><text x="17.25" y="37" text-anchor="end">Barajevo centar</text></g>
    <g id="schSt3" class="schema-station"><circle cx="20" cy="14" /><text x="19.25" y="14" text-anchor="end">Novi Beograd</text></g>
    <g id="schSt26" class="schema-station"><circle cx="20" cy="35" /><text x="19.25" y="35" text-anchor="end">Barajevo</text></g>
    <g id="schSt4" class="schema-station"><circle cx="22" cy="16" /><text x="21.25" y="16" text-anchor="end">BEOGRAD CENTAR</text></g>
    <g id="schSt27" class="schema-station"><circle cx="22" cy="33" /><text x="21.25" y="33" text-anchor="end">Bela reka</text></g>
    <g id="schSt19" class="schema-station"><circle cx="24" cy="20" /><text x="24.75" y="20">Rakovica</text></g>
    <g id="schSt18" class="schema-station"><circle cx="24" cy="23" /><text x="24.75" y="23">Kneževac</text></g>
    <g id="schSt17" class="schema-station"><circle cx="24" cy="26" /><text x="24.75" y="26">Kijevo</text></g>
    <g id="schSt16" class="schema-station"><circle cx="24" cy="29" /><text x="24.75" y="29">RESNIK</text></g>
    <g id="schSt9" class="schema-station"><circle cx="26" cy="16" /><text x="26.75" y="16">Karađorđev park</text></g>
    <g id="schSt28" class="schema-station"><circle cx="26" cy="33" /><text x="26.75" y="33">Ripanj kolonija</text></g>
    <g id="schSt10" class="schema-station"><circle cx="28" cy="14" /><text x="28.75" y="14">Vukov spomenik</text></g>
    <g id="schSt29" class="schema-station"><circle cx="28" cy="35" /><text x="28.75" y="35">Ripanj</text></g>
    <g id="schSt11" class="schema-station"><circle cx="30" cy="12" /><text x="30.75" y="12">Pančevački most</text></g>
    <g id="schSt30" class="schema-station"><circle cx="30" cy="37" /><text x="30.75" y="37">Klenje</text></g>
    <g id="schSt12" class="schema-station"><circle cx="32" cy="10" /><text x="32.75" y="10">Krnjača most</text></g>
    <g id="schSt32" class="schema-station"><circle cx="34" cy="41" /><text x="34.75" y="41">Ralja</text></g>
    <g id="schSt13" class="schema-station"><circle cx="34" cy="8" /><text x="34.75" y="8">Krnjača</text></g>
    <g id="schSt33" class="schema-station"><circle cx="36" cy="43" /><text x="36.75" y="43">Sopot</text></g>
    <g id="schSt14" class="schema-station"><circle cx="36" cy="6" /><text x="36.75" y="6">Sebeš</text></g>
    <g id="schSt34" class="schema-station"><circle cx="38" cy="45" /><text x="38.75" y="45">Vlaško polje</text></g>
    <g id="schSt15" class="schema-station"><circle cx="38" cy="4" /><text x="38.75" y="4">Ovča</text></g>
    <g id="schSt35" class="schema-station"><circle cx="40" cy="47" /><text x="40.75" y="47">MLADENOVAC</text></g>
    <g id="schSt31" class="schema-station"><circle cx="32" cy="39" /><text x="32.75" y="39">Ripanj tunel</text></g>
</svg>